:FULLY-SPECIFIED
:FORCE-ALL-JOINTS-BE-3DOF
:DEGREES
577
root 7.06056 16.1345 -3.49456 -168.686 74.7332 -174.743
lfemur -19.2214 4.22485 -18.2128
ltibia 50.6298 -0 0
lfoot -34.4328 5.43727 0.117422
ltoes -1.46122 0 0
rfemur -46.9266 -9.34129 10.6244
rtibia 44.855 -0 0
rfoot 12.2314 9.60396 0.00467093
rtoes -29.2515 0 0
lowerback 6.69601 -0.865006 -2.85978
upperback 2.69179 -1.15128 3.44683
thorax -0.831245 -0.560069 5.26251
lowerneck -4.61817 -13.7027 -4.17678
upperneck 10.5603 -18.6496 5.8542
head 4.87594 -8.99027 1.27259
lclavicle 9.95166e-15 5.51627e-15 0
lhumerus -37.8709 -18.1893 93.9465
lradius 54.0161 -0 0
lwrist 22.7228 0 0
lhand -21.3358 -4.40416 0.0224151
lfingers 7.12502 -0 0
lthumb 5.05007 25.5115 0.0212689
rclavicle 9.95166e-15 5.51627e-15 0
rhumerus 25.351 17.0669 -74.4358
rradius 134.024 -0 0
rwrist -44.038 0 0
rhand -26.326 -20.5888 0.0061795
rfingers 7.12502 -0 0
rthumb 0.230924 -50.568 0.00597196
578
root 7.00319 16.1559 -3.48755 -167.961 75.6678 -173.969
lfemur -19.0299 4.34601 -18.2701
ltibia 50.1251 -0 0
lfoot -34.2165 6.01381 0.119599
ltoes -1.17032 0 0
rfemur -46.9266 -9.6314 10.9849
rtibia 45.9717 -0 0
rfoot 12.1842 9.4989 0.00475743
rtoes -28.3687 0 0
lowerback 6.5469 -0.880341 -3.0187
upperback 2.64285 -1.1867 3.36205
thorax -0.793246 -0.581147 5.26372
lowerneck -4.69023 -13.6616 -4.14739
upperneck 10.6943 -18.6085 5.88148
head 4.9272 -8.96187 1.26947
lclavicle 9.95166e-15 5.51627e-15 0
lhumerus -36.99 -18.8763 93.3145
lradius 53.94 -0 0
lwrist 22.8721 0 0
lhand -21.2047 -4.22272 0.0228303
lfingers 7.12502 -0 0
lthumb 5.17664 25.6898 0.0216628
rclavicle 9.95166e-15 5.51627e-15 0
rhumerus 25.3701 17.0304 -74.3104
rradius 134.021 -0 0
rwrist -44.0498 0 0
rhand -26.2701 -20.4715 0.00629394
rfingers 7.12502 -0 0
rthumb 0.284929 -50.4507 0.00608256
579
root 6.94582 16.1774 -3.48053 -167.133 76.5996 -173.092
lfemur -18.8385 4.46736 -18.3271
ltibia 49.6203 -0 0
lfoot -34.0002 6.59036 0.119599
ltoes -0.879428 0 0
rfemur -46.9285 -9.92151 11.3457
rtibia 47.0885 -0 0
rfoot 12.137 9.39384 0.00475743
rtoes -27.4859 0 0
lowerback 6.39784 -0.896088 -3.17757
upperback 2.59396 -1.22218 3.27731
thorax -0.755248 -0.602227 5.26492
lowerneck -4.76225 -13.6205 -4.11805
upperneck 10.8283 -18.5674 5.90886
head 4.97846 -8.93346 1.26638
lclavicle 9.95166e-15 5.51627e-15 0
lhumerus -36.0976 -19.5539 92.6688
lradius 53.864 -0 0
lwrist 23.0213 0 0
lhand -21.0736 -4.04127 0.0228303
lfingers 7.12502 -0 0
lthumb 5.30322 25.8682 0.0216628
rclavicle 9.95166e-15 5.51627e-15 0
rhumerus 25.3892 16.9939 -74.185
rradius 134.017 -0 0
rwrist -44.0617 0 0
rhand -26.2141 -20.3543 0.00629394
rfingers 7.12502 -0 0
rthumb 0.338935 -50.3333 0.00608256
580
root 6.88845 16.1988 -3.47352 -166.178 77.5281 -172.089
lfemur -18.6471 4.58889 -18.3836
ltibia 49.1156 -0 0
lfoot -33.7839 7.16689 0.117422
ltoes -0.588533 0 0
rfemur -46.9323 -10.2116 11.7069
rtibia 48.2052 -0 0
rfoot 12.0898 9.28878 0.00467093
rtoes -26.6031 0 0
lowerback 6.24883 -0.912249 -3.33641
upperback 2.54512 -1.25774 3.19259
thorax -0.717249 -0.623307 5.26609
lowerneck -4.83424 -13.5794 -4.08877
upperneck 10.9623 -18.5264 5.93633
head 5.02971 -8.90506 1.26331
lclavicle 9.95166e-15 5.51627e-15 0
lhumerus -35.1932 -20.2219 92.0092
lradius 53.7879 -0 0
lwrist 23.1706 0 0
lhand -20.9425 -3.85983 0.0224151
lfingers 7.12502 -0 0
lthumb 5.42979 26.0465 0.0212689
rclavicle 9.95166e-15 5.51627e-15 0
rhumerus 25.4082 16.9573 -74.0596
rradius 134.014 -0 0
rwrist -44.0735 0 0
rhand -26.1582 -20.237 0.0061795
rfingers 7.12502 -0 0
rthumb 0.39294 -50.216 0.00597196
581
root 6.83109 16.2202 -3.46651 -165.067 78.4524 -170.929
lfemur -18.4559 4.71062 -18.4398
ltibia 48.6109 -0 0
lfoot -33.5676 7.74342 0.113069
ltoes -0.297638 0 0
rfemur -46.9379 -10.5017 12.0684
rtibia 49.3219 -0 0
rfoot 12.0427 9.18372 0.00449793
rtoes -25.7202 0 0
lowerback 6.09985 -0.928823 -3.4952
upperback 2.49633 -1.29337 3.1079
thorax -0.679251 -0.644387 5.26726
lowerneck -4.9062 -13.5382 -4.05955
upperneck 11.0963 -18.4855 5.96389
head 5.08095 -8.87665 1.26027
lclavicle 9.95166e-15 5.51627e-15 0
lhumerus -34.2767 -20.8799 91.3355
lradius 53.7119 -0 0
lwrist 23.3198 0 0
lhand -20.8114 -3.67839 0.0215848
lfingers 7.12502 -0 0
lthumb 5.55637 26.2248 0.020481
rclavicle 9.95166e-15 5.51627e-15 0
rhumerus 25.4271 16.9207 -73.9343
rradius 134.01 -0 0
rwrist -44.0853 0 0
rhand -26.1023 -20.1198 0.00595062
rfingers 7.12502 -0 0
rthumb 0.446945 -50.0987 0.00575077
582
root 6.77372 16.2416 -3.4595 -163.759 79.3714 -169.573
lfemur -18.2647 4.83253 -18.4956
ltibia 48.1061 -0 0
lfoot -33.3513 8.31993 0.10654
ltoes -0.00674326 0 0
rfemur -46.9453 -10.7917 12.4303
rtibia 50.4386 -0 0
rfoot 11.9955 9.07866 0.00423842
rtoes -24.8374 0 0
lowerback 5.95093 -0.94581 -3.65395
upperback 2.44759 -1.32907 3.02324
thorax -0.641253 -0.665469 5.26841
lowerneck -4.97812 -13.497 -4.03039
upperneck 11.2302 -18.4446 5.99155
head 5.13219 -8.84823 1.25726
lclavicle 9.95166e-15 5.51627e-15 0
lhumerus -33.348 -21.5277 90.6476
lradius 53.6358 -0 0
lwrist 23.4691 0 0
lhand -20.6803 -3.49695 0.0203394
lfingers 7.12502 -0 0
lthumb 5.68294 26.4031 0.0192993
rclavicle 9.95166e-15 5.51627e-15 0
rhumerus 25.4459 16.8841 -73.809
rradius 134.007 -0 0
rwrist -44.0971 0 0
rhand -26.0464 -20.0025 0.0056073
rfingers 7.12502 -0 0
rthumb 0.50095 -49.9813 0.00541898
583
root 6.71635 16.2631 -3.45249 -162.201 80.2836 -167.967
lfemur -18.0737 4.95463 -18.5509
ltibia 47.6014 -0 0
lfoot -33.1352 8.8964 0.0978349
ltoes 0.284151 -0 0
rfemur -46.9547 -11.0816 12.7925
rtibia 51.5554 -0 0
rfoot 11.9483 8.9736 0.00389242
rtoes -23.9546 0 0
lowerback 5.80205 -0.963209 -3.81265
upperback 2.39891 -1.36484 2.93861
thorax -0.603256 -0.686551 5.26955
lowerneck -5.05001 -13.4557 -4.00129
upperneck 11.3642 -18.4038 6.0193
head 5.18342 -8.81982 1.25427
lclavicle 9.95166e-15 5.51627e-15 0
lhumerus -32.4067 -22.165 89.9453
lradius 53.5598 -0 0
lwrist 23.6183 0 0
lhand -20.5492 -3.31551 0.0186788
lfingers 7.12502 -0 0
lthumb 5.80951 26.5814 0.0177237
rclavicle 9.95166e-15 5.51627e-15 0
rhumerus 25.4646 16.8474 -73.6838
rradius 134.003 -0 0
rwrist -44.1089 0 0
rhand -25.9905 -19.8852 0.00514954
rfingers 7.12502 -0 0
rthumb 0.554953 -49.864 0.0049766
584
root 6.65899 16.2845 -3.44548 -160.317 81.1869 -166.035
lfemur -17.8827 5.07691 -18.6059
ltibia 47.0967 -0 0
lfoot -32.9191 9.47284 0.086956
ltoes 0.575046 -0 0
rfemur -46.9659 -11.3716 13.1552
rtibia 52.6721 -0 0
rfoot 11.9011 8.86853 0.00345992
rtoes -23.0717 0 0
lowerback 5.65321 -0.98102 -3.97132
upperback 2.35028 -1.40069 2.854
thorax -0.565259 -0.707634 5.27067
lowerneck -5.12186 -13.4144 -3.97225
upperneck 11.4981 -18.363 6.04715
head 5.23465 -8.7914 1.25131
lclavicle 9.95166e-15 5.51627e-15 0
lhumerus -31.4527 -22.7913 89.2286
lradius 53.4837 -0 0
lwrist 23.7676 0 0
lhand -20.4182 -3.13408 0.0166032
lfingers 7.12502 -0 0
lthumb 5.93607 26.7597 0.0157542
rclavicle 9.95166e-15 5.51627e-15 0
rhumerus 25.4832 16.8107 -73.5586
rradius 134 -0 0
rwrist -44.1207 0 0
rhand -25.9346 -19.768 0.00457735
rfingers 7.12502 -0 0
rthumb 0.608956 -49.7467 0.00442362
585
root 6.60162 16.3059 -3.43847 -158.003 82.0783 -163.672
lfemur -17.6918 5.19937 -18.6604
ltibia 46.5919 -0 0
lfoot -32.7032 10.0492 0.073904
ltoes 0.865941 -0 0
rfemur -46.9791 -11.6614 13.5183
rtibia 53.7888 -0 0
rfoot 11.854 8.76347 0.00294092
rtoes -22.1889 0 0
lowerback 5.50443 -0.999243 -4.12993
upperback 2.3017 -1.43661 2.76943
thorax -0.527262 -0.728718 5.27178
lowerneck -5.19368 -13.3731 -3.94326
upperneck 11.632 -18.3223 6.07509
head 5.28587 -8.76298 1.24837
lclavicle 9.95166e-15 5.51627e-15 0
lhumerus -30.4858 -23.4065 88.4973
lradius 53.4077 -0 0
lwrist 23.9168 0 0
lhand -20.2871 -2.95265 0.0141125
lfingers 7.12502 -0 0
lthumb 6.06262 26.938 0.0133909
rclavicle 9.95166e-15 5.51627e-15 0
rhumerus 25.5018 16.7739 -73.4334
rradius 133.996 -0 0
rwrist -44.1325 0 0
rhand -25.8786 -19.6507 0.00389073
rfingers 7.12502 -0 0
rthumb 0.662957 -49.6293 0.00376006
586
root 6.54425 16.3273 -3.43146 -155.102 82.9533 -160.724
lfemur -17.5009 5.32201 -18.7146
ltibia 46.0872 -0 0
lfoot -32.4874 10.6256 0.0586806
ltoes 1.15684 -0 0
rfemur -46.9941 -11.9511 13.8819
rtibia 54.9055 -0 0
rfoot 11.8068 8.65842 0.00233542
rtoes -21.3061 0 0
lowerback 5.3557 -1.01788 -4.2885
upperback 2.25318 -1.47259 2.68489
thorax -0.489265 -0.749802 5.27288
lowerneck -5.26546 -13.3317 -3.91433
upperneck 11.7659 -18.2817 6.10312
head 5.33708 -8.73456 1.24546
lclavicle 9.95166e-15 5.51627e-15 0
lhumerus -29.5059 -24.0102 87.7513
lradius 53.3316 -0 0
lwrist 24.0661 0 0
lhand -20.156 -2.77123 0.0112068
lfingers 7.12502 -0 0
lthumb 6.18917 27.1163 0.0106337
rclavicle 9.95166e-15 5.51627e-15 0
rhumerus 25.5202 16.7371 -73.3083
rradius 133.993 -0 0
rwrist -44.1444 0 0
rhand -25.8227 -19.5335 0.00308968
rfingers 7.12502 -0 0
rthumb 0.716957 -49.512 0.00298591
587
root 6.48688 16.3488 -3.42445 -151.387 83.8047 -156.961
lfemur -17.3102 5.44484 -18.7684
ltibia 45.5825 -0 0
lfoot -32.2718 11.2019 0.0412874
ltoes 1.44773 -0 0
rfemur -47.011 -12.2408 14.2459
rtibia 56.0223 -0 0
rfoot 11.7596 8.55336 0.00164344
rtoes -20.4233 0 0
lowerback 5.20702 -1.03692 -4.44702
upperback 2.2047 -1.50866 2.60037
thorax -0.451268 -0.770887 5.27396
lowerneck -5.33722 -13.2903 -3.88546
upperneck 11.8998 -18.2411 6.13125
head 5.38829 -8.70613 1.24257
lclavicle 9.95166e-15 5.51627e-15 0
lhumerus -28.5128 -24.602 86.9906
lradius 53.2556 -0 0
lwrist 24.2153 0 0
lhand -20.025 -2.58981 0.0078861
lfingers 7.12502 -0 0
lthumb 6.31571 27.2946 0.00748286
rclavicle 9.95166e-15 5.51627e-15 0
rhumerus 25.5386 16.7003 -73.1832
rradius 133.989 -0 0
rwrist -44.1562 0 0
rhand -25.7668 -19.4162 0.0021742
rfingers 7.12502 -0 0
rthumb 0.770956 -49.3947 0.00210118
588
root 6.42952 16.3702 -3.41744 -146.51 84.6216 -152.036
lfemur -17.1195 5.56784 -18.8217
ltibia 45.0777 -0 0
lfoot -32.0563 11.7781 0.0217264
ltoes 1.73863 -0 0
rfemur -47.0298 -12.5303 14.6105
rtibia 57.139 -0 0
rfoot 11.7125 8.4483 0.000864961
rtoes -19.5404 0 0
lowerback 5.05839 -1.05638 -4.60549
upperback 2.15628 -1.54479 2.51589
thorax -0.413272 -0.791973 5.27503
lowerneck -5.40894 -13.2489 -3.85665
upperneck 12.0337 -18.2006 6.15947
head 5.4395 -8.6777 1.23971
lclavicle 9.95166e-15 5.51627e-15 0
lhumerus -27.5063 -25.1816 86.215
lradius 53.1795 -0 0
lwrist 24.3646 0 0
lhand -19.8939 -2.40841 0.00415048
lfingers 7.12502 -0 0
lthumb 6.44223 27.4728 0.00393826
rclavicle 9.95166e-15 5.51627e-15 0
rhumerus 25.5569 16.6634 -73.0581
rradius 133.986 -0 0
rwrist -44.168 0 0
rhand -25.7109 -19.299 0.00114431
rfingers 7.12502 -0 0
rthumb 0.824952 -49.2773 0.00110588
589
root 6.37215 16.3916 -3.41043 -139.95 85.3855 -145.428
lfemur -16.9289 5.69101 -18.8747
ltibia 44.573 0 0
lfoot -31.8411 12.3542 0
ltoes 2.02952 0 0
rfemur -47.0505 -12.8197 14.9755
rtibia 58.2557 0 0
rfoot 11.6653 8.34324 0
rtoes -18.6576 0 0
lowerback 4.90981 -1.07625 -4.76391
upperback 2.10791 -1.58099 2.43143
thorax -0.375276 -0.81306 5.27608
lowerneck -5.48062 -13.2074 -3.8279
upperneck 12.1676 -18.1602 6.18778
head 5.4907 -8.64927 1.23688
lclavicle 9.95166e-15 5.51627e-15 0
lhumerus -26.4865 -25.7487 85.4245
lradius 53.1035 0 0
lwrist 24.5138 0 0
lhand -19.7629 -2.22701 0
lfingers 7.12502 0 0
lthumb 6.56875 27.6511 0
rclavicle 9.95166e-15 5.51627e-15 0
rhumerus 25.5751 16.6265 -72.9331
rradius 133.982 0 0
rwrist -44.1798 0 0
rhand -25.655 -19.1817 0
rfingers 7.12502 0 0
rthumb 0.878946 -769.16 0
